<svg width="900" height="700" viewBox="0 0 900 700" fill="none" xmlns="http://www.w3.org/2000/svg">
  <rect width="900" height="700" rx="48" fill="#EEF5FF"/>
  <ellipse cx="450" cy="600" rx="280" ry="52" fill="#DDE9FF"/>

  <g>
    <rect x="320" y="240" width="120" height="92" rx="14" fill="#4DA3FF"/>
    <rect x="438" y="240" width="124" height="92" rx="14" fill="#2F7EEA"/>
    <rect x="320" y="330" width="120" height="92" rx="14" fill="#7A5CFF"/>
    <rect x="438" y="330" width="124" height="92" rx="14" fill="#35C7D8"/>

    <rect x="428" y="278" width="16" height="18" rx="4" fill="#EEF5FF"/>
    <rect x="377" y="320" width="18" height="16" rx="4" fill="#EEF5FF"/>
    <rect x="500" y="320" width="18" height="16" rx="4" fill="#EEF5FF"/>
  </g>

  <g>
    <circle cx="260" cy="250" r="26" fill="#F3C0A6"/>
    <rect x="228" y="280" width="68" height="106" rx="26" fill="#A353E4"/>
    <rect x="212" y="300" width="28" height="74" rx="14" fill="#A353E4"/>
    <rect x="294" y="304" width="28" height="74" rx="14" fill="#A353E4"/>
    <rect x="238" y="386" width="22" height="84" rx="11" fill="#5668D8"/>
    <rect x="264" y="386" width="22" height="84" rx="11" fill="#5668D8"/>
  </g>

  <g>
    <circle cx="638" cy="240" r="26" fill="#F3C0A6"/>
    <rect x="606" y="270" width="68" height="106" rx="26" fill="#4B87EA"/>
    <rect x="594" y="296" width="22" height="70" rx="11" fill="#4B87EA"/>
    <rect x="674" y="296" width="22" height="70" rx="11" fill="#4B87EA"/>
    <rect x="616" y="374" width="22" height="84" rx="11" fill="#345CC7"/>
    <rect x="642" y="374" width="22" height="84" rx="11" fill="#345CC7"/>
  </g>

  <g>
    <circle cx="292" cy="492" r="24" fill="#F3C0A6"/>
    <rect x="262" y="518" width="62" height="96" rx="24" fill="#4B87EA"/>
    <rect x="276" y="610" width="20" height="70" rx="10" fill="#2F5EC1"/>
    <rect x="300" y="610" width="20" height="70" rx="10" fill="#2F5EC1"/>
  </g>

  <g>
    <circle cx="602" cy="492" r="24" fill="#F3C0A6"/>
    <rect x="572" y="518" width="62" height="96" rx="24" fill="#58B0D8"/>
    <rect x="586" y="610" width="20" height="70" rx="10" fill="#258AB6"/>
    <rect x="610" y="610" width="20" height="70" rx="10" fill="#258AB6"/>
  </g>

  <g opacity="0.75">
    <rect x="120" y="92" width="88" height="46" rx="14" fill="#DCEBFF"/>
    <rect x="684" y="120" width="96" height="52" rx="16" fill="#DBE8FF"/>
    <rect x="86" y="548" width="120" height="60" rx="20" fill="#D8E8FF"/>
    <rect x="712" y="528" width="110" height="58" rx="18" fill="#D7E7FF"/>
  </g>
</svg>
