<svg version="1.1" id="Layer_1" xmlns="http://www.w3.org/2000/svg" xmlns:xlink="http://www.w3.org/1999/xlink" x="0px" y="0px"
	 width="100%" viewBox="0 0 542 470" enable-background="new 0 0 542 470" xml:space="preserve">
<path fill="#FFFFFF" opacity="1.000000" stroke="none" 
	d="
M267.000000,471.000000 
	C178.000015,471.000000 89.500046,471.000000 1.000047,471.000000 
	C1.000032,314.333405 1.000032,157.666779 1.000016,1.000132 
	C181.666565,1.000088 362.333130,1.000088 542.999756,1.000044 
	C542.999878,157.666519 542.999878,314.333038 542.999939,470.999786 
	C451.166656,471.000000 359.333344,471.000000 267.000000,471.000000 
M256.795166,81.189827 
	C220.731537,84.235565 188.743500,97.442596 161.970474,121.648102 
	C122.123856,157.673447 103.664841,203.021805 108.092606,256.654999 
	C115.702240,348.830017 199.713608,415.613770 291.283691,403.049866 
	C359.006775,393.757935 414.531616,342.312592 427.591766,275.120544 
	C438.419037,219.416458 424.152130,170.152283 384.404541,129.432510 
	C349.876617,94.060089 307.009216,78.746368 256.795166,81.189827 
z"/>
<path fill="#020202" opacity="1.000000" stroke="none" 
	d="
M257.266663,81.153328 
	C307.009216,78.746368 349.876617,94.060089 384.404541,129.432510 
	C424.152130,170.152283 438.419037,219.416458 427.591766,275.120544 
	C414.531616,342.312592 359.006775,393.757935 291.283691,403.049866 
	C199.713608,415.613770 115.702240,348.830017 108.092606,256.654999 
	C103.664841,203.021805 122.123856,157.673447 161.970474,121.648102 
	C188.743500,97.442596 220.731537,84.235565 257.266663,81.153328 
M183.824554,171.915131 
	C183.805466,175.244171 184.044235,178.599884 183.703384,181.895645 
	C183.256119,186.220383 185.095444,187.116241 189.101364,187.094070 
	C217.232300,186.938354 245.364548,186.989532 273.496338,187.017822 
	C308.190918,187.052719 334.924622,213.589355 335.094055,248.278229 
	C335.210297,272.081451 335.129822,295.885651 335.126770,319.689392 
	C335.124817,335.025085 335.116272,335.025085 351.757904,333.947021 
	C355.254059,333.958282 358.766418,333.763489 362.241943,334.036957 
	C365.958557,334.329437 367.112122,332.992981 367.090942,329.241638 
	C366.931915,301.105347 367.237579,272.964630 366.892151,244.831528 
	C366.291229,195.890060 325.541595,155.370621 276.644928,154.905899 
	C247.679764,154.630585 218.711731,154.657822 189.744995,154.550446 
	C187.955368,154.543808 186.165710,154.549591 184.086395,154.549591 
	C184.086395,160.456177 184.086395,165.734909 183.824554,171.915131 
M314.355194,305.500122 
	C314.340851,289.674805 314.625610,273.842285 314.244476,258.025787 
	C313.619781,232.102554 295.564484,211.267563 269.995270,208.002014 
	C258.181641,206.493240 246.067474,207.155045 234.089523,207.153091 
	C208.440460,207.148926 184.786545,227.921524 181.918457,253.418854 
	C180.880844,262.643311 181.126709,272.037262 181.161285,281.352509 
	C181.274490,311.852112 203.489136,333.926544 233.978241,333.970245 
	C258.965942,334.006042 283.953735,333.981750 308.941498,333.968048 
	C310.558411,333.967163 312.175293,333.828827 314.354462,333.728577 
	C314.354462,324.399780 314.354462,315.449982 314.355194,305.500122 
z"/>
<path fill="#FBFBFB" opacity="1.000000" stroke="none" 
	d="
M314.354828,306.000153 
	C314.354462,315.449982 314.354462,324.399780 314.354462,333.728577 
	C312.175293,333.828827 310.558411,333.967163 308.941498,333.968048 
	C283.953735,333.981750 258.965942,334.006042 233.978241,333.970245 
	C203.489136,333.926544 181.274490,311.852112 181.161285,281.352509 
	C181.126709,272.037262 180.880844,262.643311 181.918457,253.418854 
	C184.786545,227.921524 208.440460,207.148926 234.089523,207.153091 
	C246.067474,207.155045 258.181641,206.493240 269.995270,208.002014 
	C295.564484,211.267563 313.619781,232.102554 314.244476,258.025787 
	C314.625610,273.842285 314.340851,289.674805 314.354828,306.000153 
M226.130417,227.928802 
	C212.313553,229.274353 199.950272,242.833755 199.922455,256.718018 
	C199.902786,266.537872 199.957809,276.357880 199.941574,286.177765 
	C199.916870,301.106689 212.080353,313.760651 226.976242,313.864197 
	C248.279663,314.012268 269.585724,313.799774 290.888733,313.975159 
	C294.952057,314.008636 295.977051,312.599792 295.940430,308.759888 
	C295.773865,291.285095 295.962708,273.806793 295.778717,256.332336 
	C295.742798,252.918198 295.042908,249.368500 293.919739,246.134720 
	C290.348633,235.853149 282.857819,229.957962 271.566833,227.349503 
	C257.280365,227.262924 242.993942,227.166595 228.707336,227.124451 
	C228.119232,227.122711 227.529602,227.629349 226.130417,227.928802 
z"/>
<path fill="#5EDDE3" opacity="1.000000" stroke="none" 
	d="
M350.806488,333.708893 
	C335.116272,335.025085 335.124817,335.025085 335.126770,319.689392 
	C335.129822,295.885651 335.210297,272.081451 335.094055,248.278229 
	C334.924622,213.589355 308.190918,187.052719 273.496338,187.017822 
	C245.364548,186.989532 217.232300,186.938354 189.101364,187.094070 
	C185.095444,187.116241 183.256119,186.220383 183.703384,181.895645 
	C184.044235,178.599884 183.805466,175.244171 184.417877,171.448029 
	C218.169403,171.003860 251.327667,170.995270 284.485779,171.060959 
	C306.153809,171.103882 323.213593,180.944290 336.844910,196.941376 
	C347.103333,208.980194 350.743744,223.622864 350.759827,239.235703 
	C350.792236,270.726776 350.792816,302.217834 350.806488,333.708893 
z"/>
<path fill="#F9FAFA" opacity="1.000000" stroke="none" 
	d="
M351.282196,333.827942 
	C350.792816,302.217834 350.792236,270.726776 350.759827,239.235703 
	C350.743744,223.622864 347.103333,208.980194 336.844910,196.941376 
	C323.213593,180.944290 306.153809,171.103882 284.485779,171.060959 
	C251.327667,170.995270 218.169403,171.003860 184.548798,170.997284 
	C184.086395,165.734909 184.086395,160.456177 184.086395,154.549591 
	C186.165710,154.549591 187.955368,154.543808 189.744995,154.550446 
	C218.711731,154.657822 247.679764,154.630585 276.644928,154.905899 
	C325.541595,155.370621 366.291229,195.890060 366.892151,244.831528 
	C367.237579,272.964630 366.931915,301.105347 367.090942,329.241638 
	C367.112122,332.992981 365.958557,334.329437 362.241943,334.036957 
	C358.766418,333.763489 355.254059,333.958282 351.282196,333.827942 
z"/>
<path fill="#5EDADF" opacity="1.000000" stroke="none" 
	d="
M272.255371,227.888992 
	C282.857819,229.957962 290.348633,235.853149 293.919739,246.134720 
	C295.042908,249.368500 295.742798,252.918198 295.778717,256.332336 
	C295.962708,273.806793 295.773865,291.285095 295.940430,308.759888 
	C295.977051,312.599792 294.952057,314.008636 290.888733,313.975159 
	C269.585724,313.799774 248.279663,314.012268 226.976242,313.864197 
	C212.080353,313.760651 199.916870,301.106689 199.941574,286.177765 
	C199.957809,276.357880 199.902786,266.537872 199.922455,256.718018 
	C199.950272,242.833755 212.313553,229.274353 227.007401,227.946808 
	C242.674713,227.939545 257.465027,227.914276 272.255371,227.888992 
M242.512451,238.622742 
	C240.349609,238.623062 238.186630,238.608749 236.023926,238.626160 
	C223.120636,238.730026 213.712601,246.924301 212.700607,259.828979 
	C212.079224,267.752869 212.147949,275.803986 212.753647,283.733246 
	C213.590485,294.688660 222.076721,302.166748 233.150543,302.264221 
	C248.289169,302.397491 263.430420,302.227966 278.569092,302.359375 
	C281.763397,302.387115 282.978760,301.458099 282.945526,298.134918 
	C282.817535,285.326019 283.134735,272.510498 282.876129,259.705750 
	C282.626587,247.349457 273.407837,238.703918 260.977020,238.629425 
	C255.154221,238.594513 249.331055,238.622879 242.512451,238.622742 
z"/>
<path fill="#7EBEC1" opacity="1.000000" stroke="none" 
	d="
M271.911102,227.619247 
	C257.465027,227.914276 242.674713,227.939545 227.412537,227.931976 
	C227.529602,227.629349 228.119232,227.122711 228.707336,227.124451 
	C242.993942,227.166595 257.280365,227.262924 271.911102,227.619247 
z"/>
<path fill="#010202" opacity="1.000000" stroke="none" 
	d="
M243.010254,238.622650 
	C249.331055,238.622879 255.154221,238.594513 260.977020,238.629425 
	C273.407837,238.703918 282.626587,247.349457 282.876129,259.705750 
	C283.134735,272.510498 282.817535,285.326019 282.945526,298.134918 
	C282.978760,301.458099 281.763397,302.387115 278.569092,302.359375 
	C263.430420,302.227966 248.289169,302.397491 233.150543,302.264221 
	C222.076721,302.166748 213.590485,294.688660 212.753647,283.733246 
	C212.147949,275.803986 212.079224,267.752869 212.700607,259.828979 
	C213.712601,246.924301 223.120636,238.730026 236.023926,238.626160 
	C238.186630,238.608749 240.349609,238.623062 243.010254,238.622650 
z"/>
</svg>